<svg width="237" height="178" viewBox="0 0 237 178" fill="none" xmlns="http://www.w3.org/2000/svg">
<path d="M116 0H120.5L124.25 0.75L127.25 2L129.75 3.5L133.25 6.5L136 10L140 16.75L143 22L146.25 27.75L148.5 31.75L151.25 37.5L154 43L156.75 49.25L160.5 58.5L162.75 65.75L164.5 72.75L165.5 79.25V88.75L164.5 95L163.25 99.5L161.25 104.5L159.5 107.75L157 111.75L154.75 114.5L152.5 117L149.5 120L146 122.75L142.25 125.25L138.5 127.25L134.75 128.75L129.75 130.25L126 131L121.5 131.5H114.5L108.75 130.75L103.75 129.5L99.75 128L95.5 126L91.5 123.5L89 121.5L86.5 119.25L83.5 116.5L81.25 114L78.75 110.5L75.75 105.25L73.75 100.5L72.25 95.5L71.25 90.75L71 89V79.75L72 73.5L74 65.5L76.25 58.25L79 51.25L82.25 43.75L88.25 31.75L94.25 20.75L98.5 13.75L101.5 8.75L104 6L105.25 4.75L107 3.25L110.75 1.25L114.25 0.25L116 0ZM117.5 6.5L114.5 7L112 8L109.75 9.75L107.5 12L104.5 16.75L101.5 21.75L98.5 27L95 33L89.5 44L85 54.25L83 59.25L80.5 66.75L78.75 73.75L77.5 81.25V86.75L78.5 93.25L80 98.5L82 103L84.5 107L86.75 110L89 112.5L90 113.75L92.75 116L95.75 118.25L99 120.25L103.75 122.5L107.75 123.75L112.75 124.75L115 125H122L128 124L132 122.75L136 121L140 118.75L143.5 116.25L146 114L148.25 112V111.5H148.75L151.5 108L154.25 103.5L156 100L157.5 95.5L158.75 89.5L159 83.75L158.5 77.5L156.75 69.25L154 60.5L151.25 53.5L147.5 45L141.5 33L138.25 27.25L134.5 20.75L132.5 17.5L129.75 13L127.5 10.25L125 8.25L122 7L118.5 6.5H117.5Z" fill="#DEECE1"/>
<path d="M137 57.5H139.5L141 58.75L143.5 64L146 70.5L147.75 76.75L148.5 80.75V87.5L147.5 92L145.5 96.75L143.25 100.75L140 104.5L138 106.25L134.25 108.75L130.25 110.75H128.5L126.5 109L126.25 108.5V106.5L127.25 105L132.5 102L134.75 100.25L136 99.25L138.25 96.25L140.25 92.25L141.25 88.75L141.5 87.5V81.25L140.5 76.25L138.75 70.75L136.75 65.75L135 61.5V59.5L136 58L137 57.5Z" fill="#DEECE1"/>
<path d="M110.5 145.25H122L123 145.5L123.25 146.25V150.75L122.5 151.5H114.5L117 157.25L119.5 163.75L121 167.25V167.75H121.5L122.25 165L126.25 155L129.75 146L130.25 145.5H136L136.25 145.75V147.5L134.25 152.5L131.5 159.25L126.5 171.75L124.5 176.5L124 177.25L121.75 177.5H119.25L118 176.75L117 174.75L111.5 161L106 147.5V145.75L106.25 145.5L110.5 145.25Z" fill="#DEECE1"/>
<path d="M224 145.25H232.25L236.25 145.5L236.75 146V150L236.25 151.25L235.75 151.5L226.75 151.75L226.5 177L226 177.25H220.75L220.25 176.75V145.75L220.5 145.5L224 145.25Z" fill="#DEECE1"/>
<path d="M154.75 145.25L156.25 145.5L156.75 147.5V150.75L155.5 151.5L152 153.25L150.25 155L149 157.25L148.5 159.5V163L149 165.25L150.25 167.5L152 169.25L156.25 171.25L156.75 172.25V176L156 177.25H154.25L151.25 176.25L148.5 174.75L145.5 172L143.75 169.25L142.5 166.25L142 164.25V158.5L143 155L144.75 151.75L147 149.25L149.25 147.5L152.75 145.75L154.75 145.25Z" fill="#DEECE1"/>
<path d="M160.5 145.25L163.25 145.75L165.75 146.75L168.5 148.75L169.75 149.75L171.75 152.5L173.25 155.5L174 158.5V164L173 168L171.5 170.5L169.5 173L167.75 174.5L164.75 176.25L161.5 177.25L159.75 177L159.25 176.25V172.5L159.75 171.25L163.75 169.5L165.75 167.75L167.25 164.75L167.5 163.75V159L166.75 156.5L165 154L162.25 152.25L159.75 151.25L159.25 150.75V147.25L159.75 145.5L160.5 145.25Z" fill="#DEECE1"/>
<path d="M81 145.25L82.25 145.5L82.75 146.5V151L78.75 153L76.75 154.5L75.25 157L74.75 159V163.75L75.75 166.5L77.25 168.5L80 170.25L82.5 171.25L82.75 171.5V176.5L82.25 177.25H80.25L76.75 176L73.75 174L71.25 171.5L69.5 168.5L68.5 165.75L68 161.75L68.25 158L69.5 154.25L71.25 151.25L74.25 148.25L77.5 146.25L81 145.25Z" fill="#DEECE1"/>
<path d="M86.5 145.25L88.75 145.5L91.75 146.75L94.5 148.5L96.75 150.75L98.5 153.5L99.75 156.75L100.25 159V163.75L99.25 167.75L97.75 170.5L95.75 173L93.25 175L90.25 176.5L87.75 177.25H86.25L85.5 176V172.5L86 171.25L89.5 169.75L91.75 168L93 166L93.75 163V160L93.25 157.25L91.75 154.75L89.75 153L85.75 151L85.5 150.75V147L86 145.5L86.5 145.25Z" fill="#DEECE1"/>
<path d="M43.25 145.5L44.5 145.75L45 147.5V150.75L44.5 151.5L41.5 153L39.75 154.5L38.25 157.5L37.75 160V163L38.5 166L39.75 168L42 170L44.75 171.5L45 172.5V175.5L44.5 177L44.25 177.25H42.5L39.75 176.25L37.25 174.75L35.25 173L33.5 170.5L32.25 167.75L31.25 163.75V159L32.25 155L34 151.5L36.5 148.75L39.25 147L42.25 145.75L43.25 145.5Z" fill="#DEECE1"/>
<path d="M183.5 145.5H188.75L189.25 145.75V176.5L188.5 177H184L183.25 176.5L183 175.75V146L183.5 145.5Z" fill="#DEECE1"/>
<path d="M4.75 145.25H20.5L23.75 145.5L24 145.75V151L22.75 151.5H0.5L0 150.75V145.75L0.25 145.5L4.75 145.25Z" fill="#DEECE1"/>
<path d="M0.5 171H23.25L24 171.75V176.5L23.5 177H0.25L0 176.5V171.5L0.5 171Z" fill="#DEECE1"/>
<path d="M2.75 158H18L21.75 158.25L22.25 159.5V162.75L21.75 164L21.5 164.25H0.25L0 163.75V158.5L0.25 158.25L2.75 158Z" fill="#DEECE1"/>
<path d="M48.75 145.25L52.75 146.25L55.75 147.75L58.75 150.5L60.5 153.25L61.25 155V156.25L60.25 157L56.5 157.25L55.25 156.5L53.25 154L51.5 152.5L48 151L47.75 150.75V146.25L48 145.5L48.75 145.25Z" fill="#DEECE1"/>
<path d="M55.75 165.75H59.75L61 166.25L61.25 166.5L61 168.5L59.5 171.25L57.25 173.75L55.25 175.25L52.75 176.5L49.75 177.5H48.5L47.75 176.75V172L48.25 171.5L51.25 170.5L53.75 168.25L54.75 167L55.75 165.75Z" fill="#DEECE1"/>
<path d="M192.5 171H204.5L205 172.5V175.75L204.75 176.75L204.25 177H192.5L192 176V172L192.5 171Z" fill="#DEECE1"/>
<path d="M210.5 145.5H217L217.5 146V150.5L216.5 151.5H211L210.25 150.75V146L210.5 145.5Z" fill="#DEECE1"/>
</svg>
