<svg width="207" height="64" viewBox="0 0 207 64" fill="none" xmlns="http://www.w3.org/2000/svg">
<path d="M129.903 21.3333H136.878L137.485 21.485L137.636 21.9398V24.6691L137.181 25.124H132.329L133.846 28.6114L135.362 32.5536L136.272 34.6764V34.9797H136.575L137.03 33.3118L139.456 27.2467L141.579 21.7882L141.882 21.485H145.369L145.521 21.6366V22.698L144.308 25.7305L142.64 29.8244L139.607 37.4057L138.394 40.2866L138.091 40.7414L136.727 40.8931H135.21L134.452 40.4382L133.846 39.2252L130.51 30.8858L127.174 22.698V21.6366L127.326 21.485L129.903 21.3333Z" fill="#131314"/>
<path d="M198.741 21.3333H203.745L206.171 21.485L206.474 21.7882V24.2142L206.171 24.9724L205.868 25.124L200.409 25.2756L200.258 40.5898L199.954 40.7414H196.77L196.467 40.4382V21.6366L196.619 21.485L198.741 21.3333Z" fill="#131313"/>
<path d="M156.741 21.3333L157.651 21.485L157.954 22.698V24.6691L157.196 25.124L155.073 26.1854L154.012 27.2467L153.254 28.6114L152.95 29.976V32.0988L153.254 33.4634L154.012 34.828L155.073 35.8894L157.651 37.1024L157.954 37.7089V39.9833L157.499 40.7414H156.438L154.618 40.1349L152.95 39.2252L151.131 37.5573L150.07 35.8894L149.311 34.0699L149.008 32.8569V29.3695L149.615 27.2467L150.676 25.2756L152.041 23.7593L153.405 22.698L155.528 21.6366L156.741 21.3333Z" fill="#131314"/>
<path d="M160.228 21.3333L161.896 21.6366L163.413 22.2431L165.08 23.4561L165.839 24.0626L167.052 25.7305L167.961 27.55L168.416 29.3695V32.7053L167.81 35.1313L166.9 36.6475L165.687 38.1638L164.626 39.0736L162.806 40.1349L160.835 40.7414L159.774 40.5898L159.47 40.1349V37.8606L159.774 37.1024L162.2 36.041L163.413 34.9797L164.322 33.1601L164.474 32.5536V29.6728L164.019 28.1565L162.958 26.6402L161.29 25.5789L159.774 24.9724L159.47 24.6691V22.5463L159.774 21.485L160.228 21.3333Z" fill="#131313"/>
<path d="M112.011 21.3333L112.77 21.485L113.073 22.0915V24.8207L110.647 26.0337L109.434 26.9435L108.524 28.4597L108.221 29.6728V32.5536L108.827 34.2215L109.737 35.4345L111.405 36.4959L112.921 37.1024L113.073 37.254V40.2866L112.77 40.7414H111.557L109.434 39.9833L107.614 38.7703L106.098 37.254L105.037 35.4345L104.43 33.7667L104.127 31.3406L104.278 29.0662L105.037 26.7919L106.098 24.9724L107.917 23.1528L109.889 21.9398L112.011 21.3333Z" fill="#131313"/>
<path d="M115.347 21.3333L116.712 21.485L118.531 22.2431L120.199 23.3045L121.564 24.6691L122.625 26.337L123.383 28.3081L123.687 29.6728V32.5536L123.08 34.9797L122.17 36.6475L120.957 38.1638L119.441 39.3768L117.622 40.2866L116.105 40.7414H115.196L114.741 39.9833V37.8606L115.044 37.1024L117.167 36.1927L118.531 35.1313L119.29 33.9183L119.744 32.0988V30.2793L119.441 28.6114L118.531 27.0951L117.318 26.0337L114.892 24.8207L114.741 24.6691V22.3947L115.044 21.485L115.347 21.3333Z" fill="#131314"/>
<path d="M89.1159 21.485L89.8741 21.6366L90.1773 22.698V24.6691L89.8741 25.124L88.0546 26.0337L86.9932 26.9435L86.0834 28.763L85.7802 30.2793V32.0988L86.235 33.9183L86.9932 35.1313L88.3578 36.3443L90.0257 37.2541L90.1773 37.8606V39.6801L89.8741 40.5898L89.7224 40.7414H88.6611L86.9932 40.1349L85.4769 39.2252L84.2639 38.1638L83.2025 36.6475L82.4444 34.9797L81.8379 32.5536V29.6728L82.4444 27.2467L83.5058 25.124L85.022 23.4561L86.6899 22.3947L88.5094 21.6366L89.1159 21.485Z" fill="#141414"/>
<path d="M174.178 21.485H177.362L177.666 21.6366V40.2866L177.211 40.5898H174.481L174.027 40.2866L173.875 39.8317V21.7882L174.178 21.485Z" fill="#131213"/>
<path d="M65.7655 21.3333H75.318L77.2891 21.485L77.4407 21.6366V24.8207L76.6826 25.124H63.1879L62.8846 24.6691V21.6366L63.0363 21.485L65.7655 21.3333Z" fill="#131313"/>
<path d="M63.1879 36.9508H76.9859L77.4407 37.4057V40.2866L77.1375 40.5898H63.0363L62.8846 40.2866V37.254L63.1879 36.9508Z" fill="#131213"/>
<path d="M64.5525 29.0663H73.8017L76.0761 29.2179L76.3793 29.976V31.9471L76.0761 32.7053L75.9245 32.8569H63.0363L62.8846 32.5536V29.3695L63.0363 29.2179L64.5525 29.0663Z" fill="#131314"/>
<path d="M92.4517 21.3333L94.8777 21.9398L96.6972 22.8496L98.5168 24.5175L99.5781 26.1854L100.033 27.2467V28.0049L99.4265 28.4597L97.1521 28.6114L96.394 28.1565L95.181 26.6402L94.1196 25.7305L91.9968 24.8207L91.8452 24.6691V21.9398L91.9968 21.485L92.4517 21.3333Z" fill="#131314"/>
<path d="M96.6972 33.7667H99.1233L99.8814 34.0699L100.033 34.2215L99.8814 35.4345L98.9716 37.1024L97.607 38.6187L96.394 39.5284L94.8777 40.2866L93.0582 40.8931H92.3001L91.8452 40.4382V37.5573L92.1485 37.2541L93.968 36.6476L95.4842 35.2829L96.0907 34.5248L96.6972 33.7667Z" fill="#141314"/>
<path d="M179.637 36.9508H186.915L187.218 37.8605V39.8317L187.066 40.4382L186.763 40.5898H179.637L179.333 39.9833V37.5573L179.637 36.9508Z" fill="#131213"/>
<path d="M190.554 21.485H194.496L194.799 21.7882V24.5175L194.193 25.124H190.857L190.402 24.6691V21.7882L190.554 21.485Z" fill="#131313"/>
<path d="M22.4268 0H24.6169L26.442 0.365019L27.9021 0.973384L29.1188 1.70342L30.8222 3.1635L32.1606 4.86692L34.1074 8.15209L35.5675 10.7072L37.1492 13.5057L38.2443 15.4525L39.5827 18.2509L40.9211 20.9278L42.2595 23.9696L44.0846 28.4715L45.1796 32L46.0313 35.4068L46.518 38.5703V43.1939L46.0313 46.2357L45.423 48.4259L44.4496 50.8593L43.5979 52.4411L42.3811 54.3878L41.2861 55.7262L40.191 56.943L38.731 58.403L37.0275 59.7414L35.2024 60.9582L33.3773 61.9316L31.5522 62.6616L29.1188 63.3916L27.2937 63.7567L25.1036 64H21.6967L18.8983 63.635L16.4648 63.0266L14.518 62.2966L12.4496 61.3232L10.5028 60.1065L9.28609 59.1331L8.06936 58.038L6.60928 56.6996L5.51423 55.4829L4.2975 53.7795L2.83742 51.2243L1.86404 48.9125L1.134 46.4791L0.647308 44.1673L0.525635 43.3156V38.8137L1.01233 35.7719L1.98571 31.8783L3.08077 28.3498L4.41917 24.943L6.00092 21.2928L8.92107 15.4525L11.8412 10.0989L13.9097 6.69202L15.3697 4.25855L16.5865 2.92015L17.1948 2.31179L18.0465 1.58175L19.8716 0.608365L21.5751 0.121673L22.4268 0ZM23.1568 3.1635L21.6967 3.40684L20.48 3.89354L19.3849 4.74525L18.2899 5.8403L16.8298 8.15209L15.3697 10.5856L13.9097 13.1407L12.2062 16.0608L9.52944 21.4144L7.33932 26.403L6.36594 28.8365L5.14921 32.4867L4.2975 35.8935L3.68913 39.5437V42.2205L4.17582 45.384L4.90586 47.9392L5.87925 50.1293L7.09598 52.076L8.19103 53.5361L9.28609 54.7528L9.77278 55.3612L11.1112 56.4563L12.5713 57.5513L14.153 58.5247L16.4648 59.6198L18.4116 60.2281L20.845 60.7148L21.9401 60.8365H25.3469L28.2671 60.3498L30.2138 59.7414L32.1606 58.8897L34.1074 57.7947L35.8108 56.5779L37.0275 55.4829L38.1226 54.5095V54.2662H38.3659L39.7043 52.5627L41.0427 50.3726L41.8945 48.6692L42.6245 46.4791L43.2329 43.5589L43.3545 40.7605L43.1112 37.7186L42.2595 33.7034L40.9211 29.4449L39.5827 26.038L37.7576 21.9011L34.8374 16.0608L33.2557 13.2624L31.4306 10.0989L30.4572 8.51711L29.1188 6.327L28.0237 4.98859L26.807 4.01521L25.3469 3.40684L23.6435 3.1635H23.1568Z" fill="#131313"/>
<path d="M32.6473 27.9848H33.8641L34.5941 28.5932L35.8108 31.1483L37.0276 34.3118L37.8793 37.3536L38.2443 39.3004V42.5855L37.7576 44.7757L36.7842 47.0875L35.6892 49.0342L34.1074 50.8593L33.134 51.711L31.3089 52.9278L29.3622 53.9011H28.5105L27.5371 53.0494L27.4154 52.8061V51.8327L27.9021 51.1027L30.4572 49.6426L31.5523 48.7909L32.1607 48.3042L33.2557 46.8441L34.2291 44.8973L34.7158 43.1939L34.8375 42.5855V39.5437L34.3508 37.1103L33.4991 34.4335L32.5257 32L31.674 29.9316V28.9582L32.1607 28.2281L32.6473 27.9848Z" fill="#131313"/>
</svg>
