<svg width="189" height="263" viewBox="0 0 189 263" fill="none" xmlns="http://www.w3.org/2000/svg">
<path d="M90 0H99L106.5 1.5L112.5 4L117.5 7L124.5 13L130 20L138 33.5L144 44L150.5 55.5L155 63.5L160.5 75L166 86L171.5 98.5L179 117L183.5 131.5L187 145.5L189 158.5V177.5L187 190L184.5 199L180.5 209L177 215.5L172 223.5L167.5 229L163 234L157 240L150 245.5L142.5 250.5L135 254.5L127.5 257.5L117.5 260.5L110 262L101 263H87L75.5 261.5L65.5 259L57.5 256L49 252L41 247L36 243L31 238.5L25 233L20.5 228L15.5 221L9.5 210.5L5.5 201L2.5 191L0.5 181.5L0 178V159.5L2 147L6 131L10.5 116.5L16 102.5L22.5 87.5L34.5 63.5L46.5 41.5L55 27.5L61 17.5L66 12L68.5 9.5L72 6.5L79.5 2.5L86.5 0.5L90 0ZM93 13L87 14L82 16L77.5 19.5L73 24L67 33.5L61 43.5L55 54L48 66L37 88L28 108.5L24 118.5L19 133.5L15.5 147.5L13 162.5V173.5L15 186.5L18 197L22 206L27 214L31.5 220L36 225L38 227.5L43.5 232L49.5 236.5L56 240.5L65.5 245L73.5 247.5L83.5 249.5L88 250H102L114 248L122 245.5L130 242L138 237.5L145 232.5L150 228L154.5 224V223H155.5L161 216L166.5 207L170 200L173 191L175.5 179L176 167.5L175 155L171.5 138.5L166 121L160.5 107L153 90L141 66L134.5 54.5L127 41.5L123 35L117.5 26L113 20.5L108 16.5L102 14L95 13H93Z" fill="#131313"/>
<path d="M132 115H137L140 117.5L145 128L150 141L153.5 153.5L155 161.5V175L153 184L149 193.5L144.5 201.5L138 209L134 212.5L126.5 217.5L118.5 221.5H115L111 218L110.5 217V213L112.5 210L123 204L127.5 200.5L130 198.5L134.5 192.5L138.5 184.5L140.5 177.5L141 175V162.5L139 152.5L135.5 141.5L131.5 131.5L128 123V119L130 116L132 115Z" fill="#131313"/>
</svg>
